<mxfile host="Electron" agent="Mozilla/5.0 (Windows NT 10.0; Win64; x64) AppleWebKit/537.36 (KHTML, like Gecko) draw.io/28.1.2 Chrome/138.0.7204.243 Electron/37.4.0 Safari/537.36" version="28.1.2">
  <diagram name="Page-1" id="bAyRmLEibwiN99dEbC3e">
    <mxGraphModel dx="1912" dy="863" grid="1" gridSize="10" guides="1" tooltips="1" connect="1" arrows="1" fold="1" page="1" pageScale="1" pageWidth="850" pageHeight="1100" math="0" shadow="0">
      <root>
        <mxCell id="0" />
        <mxCell id="1" parent="0" />
        <mxCell id="nHN9lhpydvBdPxuzWMcy-7" value="" style="edgeStyle=orthogonalEdgeStyle;rounded=0;orthogonalLoop=1;jettySize=auto;html=1;" edge="1" parent="1" source="nHN9lhpydvBdPxuzWMcy-1" target="nHN9lhpydvBdPxuzWMcy-6">
          <mxGeometry relative="1" as="geometry" />
        </mxCell>
        <mxCell id="nHN9lhpydvBdPxuzWMcy-1" value="start" style="ellipse;whiteSpace=wrap;html=1;strokeColor=#000000;" vertex="1" parent="1">
          <mxGeometry x="300" y="60" width="120" height="80" as="geometry" />
        </mxCell>
        <mxCell id="nHN9lhpydvBdPxuzWMcy-9" value="" style="edgeStyle=orthogonalEdgeStyle;rounded=0;orthogonalLoop=1;jettySize=auto;html=1;" edge="1" parent="1" source="nHN9lhpydvBdPxuzWMcy-6" target="nHN9lhpydvBdPxuzWMcy-8">
          <mxGeometry relative="1" as="geometry" />
        </mxCell>
        <mxCell id="nHN9lhpydvBdPxuzWMcy-6" value="input nama pelanggan,jumlah batu bata,jumlah semen" style="shape=parallelogram;perimeter=parallelogramPerimeter;whiteSpace=wrap;html=1;fixedSize=1;strokeColor=#000000;" vertex="1" parent="1">
          <mxGeometry x="250" y="210" width="220" height="70" as="geometry" />
        </mxCell>
        <mxCell id="nHN9lhpydvBdPxuzWMcy-11" value="" style="edgeStyle=orthogonalEdgeStyle;rounded=0;orthogonalLoop=1;jettySize=auto;html=1;" edge="1" parent="1" source="nHN9lhpydvBdPxuzWMcy-8" target="nHN9lhpydvBdPxuzWMcy-10">
          <mxGeometry relative="1" as="geometry" />
        </mxCell>
        <mxCell id="nHN9lhpydvBdPxuzWMcy-8" value="set harga batu bata=100" style="rounded=1;whiteSpace=wrap;html=1;strokeColor=#000000;" vertex="1" parent="1">
          <mxGeometry x="300" y="365" width="120" height="60" as="geometry" />
        </mxCell>
        <mxCell id="nHN9lhpydvBdPxuzWMcy-13" value="" style="edgeStyle=orthogonalEdgeStyle;rounded=0;orthogonalLoop=1;jettySize=auto;html=1;" edge="1" parent="1" source="nHN9lhpydvBdPxuzWMcy-10" target="nHN9lhpydvBdPxuzWMcy-12">
          <mxGeometry relative="1" as="geometry" />
        </mxCell>
        <mxCell id="nHN9lhpydvBdPxuzWMcy-10" value="set harga semen=100000" style="rounded=1;whiteSpace=wrap;html=1;strokeColor=#000000;" vertex="1" parent="1">
          <mxGeometry x="300" y="505" width="120" height="60" as="geometry" />
        </mxCell>
        <mxCell id="nHN9lhpydvBdPxuzWMcy-16" value="" style="edgeStyle=orthogonalEdgeStyle;rounded=0;orthogonalLoop=1;jettySize=auto;html=1;" edge="1" parent="1" source="nHN9lhpydvBdPxuzWMcy-12" target="nHN9lhpydvBdPxuzWMcy-15">
          <mxGeometry relative="1" as="geometry" />
        </mxCell>
        <mxCell id="nHN9lhpydvBdPxuzWMcy-12" value="hitung total awal(jumlah batu bata*harga batu bata)+(jumlah semen*harga semen)" style="whiteSpace=wrap;html=1;strokeColor=#000000;rounded=1;" vertex="1" parent="1">
          <mxGeometry x="260" y="620" width="200" height="90" as="geometry" />
        </mxCell>
        <mxCell id="nHN9lhpydvBdPxuzWMcy-15" value="jumlah batu bata==500 dan jumlah semen==5" style="rhombus;whiteSpace=wrap;html=1;strokeColor=#000000;rounded=1;" vertex="1" parent="1">
          <mxGeometry x="270" y="760" width="180" height="170" as="geometry" />
        </mxCell>
        <mxCell id="nHN9lhpydvBdPxuzWMcy-21" value="" style="endArrow=classic;html=1;rounded=0;exitX=1;exitY=0.5;exitDx=0;exitDy=0;entryX=0.605;entryY=0.019;entryDx=0;entryDy=0;entryPerimeter=0;" edge="1" parent="1" source="nHN9lhpydvBdPxuzWMcy-15">
          <mxGeometry width="50" height="50" relative="1" as="geometry">
            <mxPoint x="270" y="720" as="sourcePoint" />
            <mxPoint x="632.5999999999997" y="956.1399999999999" as="targetPoint" />
            <Array as="points">
              <mxPoint x="633" y="845" />
            </Array>
          </mxGeometry>
        </mxCell>
        <mxCell id="nHN9lhpydvBdPxuzWMcy-41" value="" style="edgeStyle=orthogonalEdgeStyle;rounded=0;orthogonalLoop=1;jettySize=auto;html=1;" edge="1" parent="1" source="nHN9lhpydvBdPxuzWMcy-22" target="nHN9lhpydvBdPxuzWMcy-40">
          <mxGeometry relative="1" as="geometry" />
        </mxCell>
        <mxCell id="nHN9lhpydvBdPxuzWMcy-22" value="diskon=0.15&lt;div&gt;keterangan=paket hemat 15%&lt;/div&gt;" style="rounded=1;whiteSpace=wrap;html=1;" vertex="1" parent="1">
          <mxGeometry x="580" y="960" width="120" height="60" as="geometry" />
        </mxCell>
        <mxCell id="nHN9lhpydvBdPxuzWMcy-23" value="" style="endArrow=classic;html=1;rounded=0;exitX=0;exitY=0.5;exitDx=0;exitDy=0;" edge="1" parent="1" source="nHN9lhpydvBdPxuzWMcy-15">
          <mxGeometry width="50" height="50" relative="1" as="geometry">
            <mxPoint x="280" y="770" as="sourcePoint" />
            <mxPoint x="120" y="919.9999999999998" as="targetPoint" />
            <Array as="points">
              <mxPoint x="120" y="845" />
            </Array>
          </mxGeometry>
        </mxCell>
        <mxCell id="nHN9lhpydvBdPxuzWMcy-25" value="jumlah batu bata==2000 dan jumlah semen==16" style="rhombus;whiteSpace=wrap;html=1;" vertex="1" parent="1">
          <mxGeometry x="30" y="920" width="180" height="150" as="geometry" />
        </mxCell>
        <mxCell id="nHN9lhpydvBdPxuzWMcy-26" value="" style="endArrow=classic;html=1;rounded=0;exitX=0;exitY=0.5;exitDx=0;exitDy=0;" edge="1" parent="1" source="nHN9lhpydvBdPxuzWMcy-25">
          <mxGeometry width="50" height="50" relative="1" as="geometry">
            <mxPoint x="280" y="770" as="sourcePoint" />
            <mxPoint x="-80" y="1080" as="targetPoint" />
            <Array as="points">
              <mxPoint x="-80" y="995" />
            </Array>
          </mxGeometry>
        </mxCell>
        <mxCell id="nHN9lhpydvBdPxuzWMcy-27" value="" style="endArrow=classic;html=1;rounded=0;exitX=1;exitY=0.5;exitDx=0;exitDy=0;entryX=0.5;entryY=0;entryDx=0;entryDy=0;" edge="1" parent="1" source="nHN9lhpydvBdPxuzWMcy-25" target="nHN9lhpydvBdPxuzWMcy-28">
          <mxGeometry width="50" height="50" relative="1" as="geometry">
            <mxPoint x="280" y="920" as="sourcePoint" />
            <mxPoint x="320" y="1080" as="targetPoint" />
            <Array as="points">
              <mxPoint x="320" y="995" />
            </Array>
          </mxGeometry>
        </mxCell>
        <mxCell id="nHN9lhpydvBdPxuzWMcy-31" value="" style="edgeStyle=orthogonalEdgeStyle;rounded=0;orthogonalLoop=1;jettySize=auto;html=1;" edge="1" parent="1" source="nHN9lhpydvBdPxuzWMcy-28" target="nHN9lhpydvBdPxuzWMcy-30">
          <mxGeometry relative="1" as="geometry" />
        </mxCell>
        <mxCell id="nHN9lhpydvBdPxuzWMcy-28" value="diskon=0.30&lt;div&gt;keterangan=paket ultra mantap&lt;/div&gt;" style="rounded=1;whiteSpace=wrap;html=1;" vertex="1" parent="1">
          <mxGeometry x="260" y="1080" width="120" height="60" as="geometry" />
        </mxCell>
        <mxCell id="nHN9lhpydvBdPxuzWMcy-35" value="" style="edgeStyle=orthogonalEdgeStyle;rounded=0;orthogonalLoop=1;jettySize=auto;html=1;" edge="1" parent="1" source="nHN9lhpydvBdPxuzWMcy-29">
          <mxGeometry relative="1" as="geometry">
            <mxPoint x="-70.00000000000023" y="1219.9999999999998" as="targetPoint" />
          </mxGeometry>
        </mxCell>
        <mxCell id="nHN9lhpydvBdPxuzWMcy-29" value="diskon=0&lt;div&gt;keterngan=tidak ada diskon&lt;/div&gt;" style="rounded=1;whiteSpace=wrap;html=1;" vertex="1" parent="1">
          <mxGeometry x="-130" y="1080" width="120" height="60" as="geometry" />
        </mxCell>
        <mxCell id="nHN9lhpydvBdPxuzWMcy-33" value="" style="edgeStyle=orthogonalEdgeStyle;rounded=0;orthogonalLoop=1;jettySize=auto;html=1;" edge="1" parent="1" source="nHN9lhpydvBdPxuzWMcy-30" target="nHN9lhpydvBdPxuzWMcy-32">
          <mxGeometry relative="1" as="geometry" />
        </mxCell>
        <mxCell id="nHN9lhpydvBdPxuzWMcy-30" value="jumlah diskon=total awal*diskon" style="whiteSpace=wrap;html=1;rounded=1;" vertex="1" parent="1">
          <mxGeometry x="260" y="1220" width="120" height="60" as="geometry" />
        </mxCell>
        <mxCell id="nHN9lhpydvBdPxuzWMcy-46" style="edgeStyle=orthogonalEdgeStyle;rounded=0;orthogonalLoop=1;jettySize=auto;html=1;exitX=0.5;exitY=1;exitDx=0;exitDy=0;" edge="1" parent="1" source="nHN9lhpydvBdPxuzWMcy-32">
          <mxGeometry relative="1" as="geometry">
            <mxPoint x="319.7142857142858" y="1450" as="targetPoint" />
          </mxGeometry>
        </mxCell>
        <mxCell id="nHN9lhpydvBdPxuzWMcy-32" value="total akhir=total awal-jumlah diskon" style="whiteSpace=wrap;html=1;rounded=1;" vertex="1" parent="1">
          <mxGeometry x="260" y="1360" width="120" height="60" as="geometry" />
        </mxCell>
        <mxCell id="nHN9lhpydvBdPxuzWMcy-38" value="" style="edgeStyle=orthogonalEdgeStyle;rounded=0;orthogonalLoop=1;jettySize=auto;html=1;" edge="1" parent="1" source="nHN9lhpydvBdPxuzWMcy-36">
          <mxGeometry relative="1" as="geometry">
            <mxPoint x="-70.00000000000023" y="1360" as="targetPoint" />
          </mxGeometry>
        </mxCell>
        <mxCell id="nHN9lhpydvBdPxuzWMcy-36" value="jumlah diskon=total awal*diskon" style="whiteSpace=wrap;html=1;rounded=1;" vertex="1" parent="1">
          <mxGeometry x="-130" y="1220" width="120" height="60" as="geometry" />
        </mxCell>
        <mxCell id="nHN9lhpydvBdPxuzWMcy-39" value="total akhir=total awal-jumlah diskon" style="whiteSpace=wrap;html=1;rounded=1;" vertex="1" parent="1">
          <mxGeometry x="-130" y="1360" width="120" height="60" as="geometry" />
        </mxCell>
        <mxCell id="nHN9lhpydvBdPxuzWMcy-43" value="" style="edgeStyle=orthogonalEdgeStyle;rounded=0;orthogonalLoop=1;jettySize=auto;html=1;" edge="1" parent="1" source="nHN9lhpydvBdPxuzWMcy-40" target="nHN9lhpydvBdPxuzWMcy-42">
          <mxGeometry relative="1" as="geometry" />
        </mxCell>
        <mxCell id="nHN9lhpydvBdPxuzWMcy-40" value="jumlah diskon=total awal*diskon" style="whiteSpace=wrap;html=1;rounded=1;" vertex="1" parent="1">
          <mxGeometry x="580" y="1100" width="120" height="60" as="geometry" />
        </mxCell>
        <mxCell id="nHN9lhpydvBdPxuzWMcy-45" style="edgeStyle=orthogonalEdgeStyle;rounded=0;orthogonalLoop=1;jettySize=auto;html=1;exitX=0.5;exitY=1;exitDx=0;exitDy=0;" edge="1" parent="1" source="nHN9lhpydvBdPxuzWMcy-42">
          <mxGeometry relative="1" as="geometry">
            <mxPoint x="639.6923076923076" y="1340" as="targetPoint" />
          </mxGeometry>
        </mxCell>
        <mxCell id="nHN9lhpydvBdPxuzWMcy-42" value="total akhir=total awal-jumlah diskon" style="whiteSpace=wrap;html=1;rounded=1;" vertex="1" parent="1">
          <mxGeometry x="580" y="1240" width="120" height="60" as="geometry" />
        </mxCell>
        <mxCell id="nHN9lhpydvBdPxuzWMcy-44" value="" style="endArrow=classic;html=1;rounded=0;exitX=0.5;exitY=1;exitDx=0;exitDy=0;" edge="1" parent="1" source="nHN9lhpydvBdPxuzWMcy-39">
          <mxGeometry width="50" height="50" relative="1" as="geometry">
            <mxPoint x="280" y="1270" as="sourcePoint" />
            <mxPoint x="-70" y="1470" as="targetPoint" />
          </mxGeometry>
        </mxCell>
        <mxCell id="nHN9lhpydvBdPxuzWMcy-50" value="" style="endArrow=classic;html=1;rounded=0;exitX=0.5;exitY=1;exitDx=0;exitDy=0;" edge="1" parent="1" target="nHN9lhpydvBdPxuzWMcy-51">
          <mxGeometry width="50" height="50" relative="1" as="geometry">
            <mxPoint x="-70.00000000000023" y="1530" as="sourcePoint" />
            <mxPoint x="290" y="1350" as="targetPoint" />
            <Array as="points">
              <mxPoint x="-70" y="1670" />
            </Array>
          </mxGeometry>
        </mxCell>
        <mxCell id="nHN9lhpydvBdPxuzWMcy-51" value="end" style="ellipse;whiteSpace=wrap;html=1;" vertex="1" parent="1">
          <mxGeometry x="290" y="1630" width="120" height="80" as="geometry" />
        </mxCell>
        <mxCell id="nHN9lhpydvBdPxuzWMcy-52" value="" style="endArrow=classic;html=1;rounded=0;exitX=0.5;exitY=1;exitDx=0;exitDy=0;" edge="1" parent="1">
          <mxGeometry width="50" height="50" relative="1" as="geometry">
            <mxPoint x="320" y="1510" as="sourcePoint" />
            <mxPoint x="320" y="1637" as="targetPoint" />
          </mxGeometry>
        </mxCell>
        <mxCell id="nHN9lhpydvBdPxuzWMcy-53" value="" style="endArrow=classic;html=1;rounded=0;exitX=0.5;exitY=1;exitDx=0;exitDy=0;entryX=1;entryY=0;entryDx=0;entryDy=0;" edge="1" parent="1" target="nHN9lhpydvBdPxuzWMcy-51">
          <mxGeometry width="50" height="50" relative="1" as="geometry">
            <mxPoint x="639.7142857142858" y="1400" as="sourcePoint" />
            <mxPoint x="290" y="1350" as="targetPoint" />
          </mxGeometry>
        </mxCell>
        <mxCell id="nHN9lhpydvBdPxuzWMcy-54" value="nama:&lt;div&gt;jumlah:&lt;/div&gt;&lt;div&gt;harga:&lt;/div&gt;&lt;div&gt;&lt;br&gt;&lt;/div&gt;" style="shape=parallelogram;perimeter=parallelogramPerimeter;whiteSpace=wrap;html=1;fixedSize=1;" vertex="1" parent="1">
          <mxGeometry x="-130" y="1470" width="120" height="60" as="geometry" />
        </mxCell>
        <mxCell id="nHN9lhpydvBdPxuzWMcy-55" value="nama:&lt;div&gt;jumlah:&lt;/div&gt;&lt;div&gt;harga:&lt;/div&gt;&lt;div&gt;&lt;br&gt;&lt;/div&gt;" style="shape=parallelogram;perimeter=parallelogramPerimeter;whiteSpace=wrap;html=1;fixedSize=1;" vertex="1" parent="1">
          <mxGeometry x="260" y="1450" width="120" height="60" as="geometry" />
        </mxCell>
        <mxCell id="nHN9lhpydvBdPxuzWMcy-56" value="nama:&lt;div&gt;jumlah:&lt;/div&gt;&lt;div&gt;harga:&lt;/div&gt;&lt;div&gt;&lt;br&gt;&lt;/div&gt;" style="shape=parallelogram;perimeter=parallelogramPerimeter;whiteSpace=wrap;html=1;fixedSize=1;" vertex="1" parent="1">
          <mxGeometry x="580" y="1340" width="120" height="60" as="geometry" />
        </mxCell>
      </root>
    </mxGraphModel>
  </diagram>
</mxfile>
